<svg xmlns="http://www.w3.org/2000/svg" width="20.62" height="19.719" viewBox="0 0 20.62 19.719">
  <defs>
    <style>
      .cls-1 {
        fill: #343434;
        fill-rule: evenodd;
      }
    </style>
  </defs>
  <path id="Корзина" class="cls-1" d="M1327.58,723.46l-1.21,8.912a2.025,2.025,0,0,1-1.88,1.635h-10.88a2.025,2.025,0,0,1-1.88-1.635l-1.47-10.287a3.736,3.736,0,0,1-.13-1.055H1308a1,1,0,0,1,0-2h4a0.992,0.992,0,0,1,.1,1.98h13.97C1327.17,721.01,1327.84,722.141,1327.58,723.46Zm-13.85,8.518-1.31-9h13.2l-0.03.2-1.18,8.788a0.034,0.034,0,0,0-.01.014h-10.67Zm0.52,3.008a1.875,1.875,0,1,1-1.88,1.875A1.875,1.875,0,0,1,1314.25,734.986Zm9,0a1.875,1.875,0,1,1-1.88,1.875A1.875,1.875,0,0,1,1323.25,734.986Z" transform="translate(-1307 -719.031)"/>
</svg>
